<!--
  Copyright (c) p-it
 
  This source code is licensed under the MIT license found in the
  LICENSE file in the root directory of this repository
-->
<?xml version="1.0" standalone="no"?>
<!DOCTYPE svg PUBLIC "-//W3C//DTD SVG 20010904//EN"
 "http://www.w3.org/TR/2001/REC-SVG-20010904/DTD/svg10.dtd">
<svg version="1.0" xmlns="http://www.w3.org/2000/svg"
 width="209.000000pt" height="181.000000pt" viewBox="0 0 209.000000 181.000000"
 preserveAspectRatio="xMidYMid meet">

<g transform="translate(0.000000,181.000000) scale(0.100000,-0.100000)"
fill="#000000" stroke="none">
<path d="M726 1704 c-33 -32 -12 -139 35 -178 l30 -25 -22 -34 -23 -34 -96 -1
c-326 -4 -548 -165 -606 -442 -19 -90 -14 -279 10 -380 9 -36 20 -106 26 -157
24 -225 69 -303 176 -303 63 0 103 28 128 91 14 34 20 40 39 35 49 -12 276
-36 343 -36 l72 0 27 -70 c34 -88 60 -110 132 -110 34 0 63 6 80 17 28 18 73
104 73 139 0 20 6 22 108 27 59 3 117 8 129 12 19 6 26 -1 52 -53 16 -33 37
-62 46 -66 32 -12 120 -6 143 10 12 8 31 33 42 55 24 45 44 186 36 241 -6 34
-4 37 23 43 20 4 38 1 56 -11 55 -36 153 26 139 88 -4 23 2 40 29 81 75 109
87 250 33 361 -16 33 -59 91 -97 131 -61 64 -69 77 -69 112 0 48 -25 137 -51
179 -25 41 -24 47 10 67 38 22 55 66 49 127 -5 53 -29 90 -58 90 -23 0 -76
-42 -112 -88 l-30 -39 -58 29 c-155 77 -342 88 -515 30 l-89 -30 -46 39 c-76
64 -160 87 -194 53z m1050 -78 c10 -39 1 -68 -28 -89 -23 -17 -31 -19 -53 -9
-14 6 -25 16 -25 20 0 13 80 102 91 102 5 0 11 -11 15 -24z m-977 -5 c15 -11
40 -38 56 -60 32 -47 65 -55 65 -17 0 13 -7 29 -15 36 -8 7 -15 18 -15 24 1 6
14 -4 30 -23 31 -37 26 -37 131 3 93 35 212 49 302 37 249 -35 397 -171 415
-381 4 -60 8 -67 44 -99 38 -33 39 -34 19 -48 -37 -26 -22 -100 29 -140 19
-16 63 -16 77 -2 18 18 36 -66 29 -131 -25 -214 -231 -331 -561 -317 -202 8
-325 55 -428 166 -57 61 -102 149 -118 232 -14 72 -32 100 -51 81 -15 -15 -12
-71 7 -135 36 -121 128 -242 234 -307 38 -24 53 -40 58 -61 13 -68 120 -96
162 -43 11 14 25 23 31 19 14 -9 246 -8 304 0 l46 7 0 -70 c0 -90 -17 -169
-41 -193 -12 -12 -33 -19 -59 -19 -37 0 -41 3 -64 48 -18 37 -21 51 -12 64 8
13 7 21 -1 29 -9 9 -27 8 -75 -7 -42 -12 -100 -19 -173 -20 l-110 -2 -16 -62
c-20 -76 -47 -114 -84 -118 -60 -7 -72 3 -105 91 -18 45 -37 85 -43 89 -6 4
-23 4 -38 1 -33 -6 -264 13 -369 31 -41 7 -80 11 -87 9 -6 -3 -21 -29 -33 -59
-13 -30 -31 -59 -41 -64 -23 -13 -65 -13 -90 0 -35 19 -63 115 -79 274 -5 44
-17 113 -26 151 -21 89 -24 289 -5 365 58 235 265 379 546 380 l80 0 -4 -51
c-1 -28 2 -56 8 -62 16 -16 41 10 41 42 0 46 29 117 67 160 39 47 38 66 -6 76
-35 7 -49 22 -61 64 -10 36 -7 37 29 12z m1061 -1091 c-8 -6 -22 -10 -30 -9
-9 0 -5 6 10 14 27 14 44 10 20 -5z m-639 -68 c-17 -6 -61 7 -61 17 0 5 16 4
36 -2 20 -6 31 -13 25 -15z"/>
<path d="M1145 1299 c-12 -6 -27 -20 -34 -31 -11 -17 -10 -23 3 -36 14 -14 18
-14 41 8 23 22 29 23 58 12 26 -10 34 -9 47 4 13 14 13 17 -9 35 -25 20 -73
24 -106 8z"/>
<path d="M1633 1298 c-26 -13 -31 -46 -8 -54 8 -4 22 -1 30 6 12 10 21 10 44
0 50 -20 72 14 29 44 -26 18 -63 20 -95 4z"/>
<path d="M1275 1046 c-40 -42 -51 -90 -30 -123 39 -59 135 9 135 95 0 32 -27
62 -55 62 -10 0 -32 -15 -50 -34z"/>
</g>
</svg>
