<!--
  Copyright (c) p-it
 
  This source code is licensed under the MIT license found in the
  LICENSE file in the root directory of this repository
-->
<svg xmlns="http://www.w3.org/2000/svg"
        width="24"
        height="24"
		viewBox="0 0 181 209">
    <path fill="#ffffff"
        d="M72.6,10.6c-3.3,3.2 -1.2,13.9 3.5,17.8l3,2.5 -2.2,3.4 -2.3,3.4 -9.6,0.1c-32.6,0.4 -54.8,16.5 -60.6,44.2 -1.9,9 -1.4,27.9 1,38 0.9,3.6 2,10.6 2.6,15.7 2.4,22.5 6.9,30.3 17.6,30.3 6.3,-0 10.3,-2.8 12.8,-9.1 1.4,-3.4 2,-4 3.9,-3.5 4.9,1.2 27.6,3.6 34.3,3.6l7.2,-0 2.7,7c3.4,8.8 6,11 13.2,11 3.4,-0 6.3,-0.6 8,-1.7 2.8,-1.8 7.3,-10.4 7.3,-13.9 0,-2 0.6,-2.2 10.8,-2.7 5.9,-0.3 11.7,-0.8 12.9,-1.2 1.9,-0.6 2.6,0.1 5.2,5.3 1.6,3.3 3.7,6.2 4.6,6.6 3.2,1.2 12,0.6 14.3,-1 1.2,-0.8 3.1,-3.3 4.2,-5.5 2.4,-4.5 4.4,-18.6 3.6,-24.1 -0.6,-3.4 -0.4,-3.7 2.3,-4.3 2,-0.4 3.8,-0.1 5.6,1.1 5.5,3.6 15.3,-2.6 13.9,-8.8 -0.4,-2.3 0.2,-4 2.9,-8.1 7.5,-10.9 8.7,-25 3.3,-36.1 -1.6,-3.3 -5.9,-9.1 -9.7,-13.1 -6.1,-6.4 -6.9,-7.7 -6.9,-11.2 0,-4.8 -2.5,-13.7 -5.1,-17.9 -2.5,-4.1 -2.4,-4.7 1,-6.7 3.8,-2.2 5.5,-6.6 4.9,-12.7 -0.5,-5.3 -2.9,-9 -5.8,-9 -2.3,-0 -7.6,4.2 -11.2,8.8l-3,3.9 -5.8,-2.9c-15.5,-7.7 -34.2,-8.8 -51.5,-3l-8.9,3 -4.6,-3.9c-7.6,-6.4 -16,-8.7 -19.4,-5.3zM177.6,18.4c1,3.9 0.1,6.8 -2.8,8.9 -2.3,1.7 -3.1,1.9 -5.3,0.9 -1.4,-0.6 -2.5,-1.6 -2.5,-2 0,-1.3 8,-10.2 9.1,-10.2 0.5,-0 1.1,1.1 1.5,2.4zM79.9,18.9c1.5,1.1 4,3.8 5.6,6 3.2,4.7 6.5,5.5 6.5,1.7 0,-1.3 -0.7,-2.9 -1.5,-3.6 -0.8,-0.7 -1.5,-1.8 -1.5,-2.4 0.1,-0.6 1.4,0.4 3,2.3 3.1,3.7 2.6,3.7 13.1,-0.3 9.3,-3.5 21.2,-4.9 30.2,-3.7 24.9,3.5 39.7,17.1 41.5,38.1 0.4,6 0.8,6.7 4.4,9.9 3.8,3.3 3.9,3.4 1.9,4.8 -3.7,2.6 -2.2,10 2.9,14 1.9,1.6 6.3,1.6 7.7,0.2 1.8,-1.8 3.6,6.6 2.9,13.1 -2.5,21.4 -23.1,33.1 -56.1,31.7 -20.2,-0.8 -32.5,-5.5 -42.8,-16.6 -5.7,-6.1 -10.2,-14.9 -11.8,-23.2 -1.4,-7.2 -3.2,-10 -5.1,-8.1 -1.5,1.5 -1.2,7.1 0.7,13.5 3.6,12.1 12.8,24.2 23.4,30.7 3.8,2.4 5.3,4 5.8,6.1 1.3,6.8 12,9.6 16.2,4.3 1.1,-1.4 2.5,-2.3 3.1,-1.9 1.4,0.9 24.6,0.8 30.4,-0l4.6,-0.7 0,7c0,9 -1.7,16.9 -4.1,19.3 -1.2,1.2 -3.3,1.9 -5.9,1.9 -3.7,-0 -4.1,-0.3 -6.4,-4.8 -1.8,-3.7 -2.1,-5.1 -1.2,-6.4 0.8,-1.3 0.7,-2.1 -0.1,-2.9 -0.9,-0.9 -2.7,-0.8 -7.5,0.7 -4.2,1.2 -10,1.9 -17.3,2l-11,0.2 -1.6,6.2c-2,7.6 -4.7,11.4 -8.4,11.8 -6,0.7 -7.2,-0.3 -10.5,-9.1 -1.8,-4.5 -3.7,-8.5 -4.3,-8.9 -0.6,-0.4 -2.3,-0.4 -3.8,-0.1 -3.3,0.6 -26.4,-1.3 -36.9,-3.1 -4.1,-0.7 -8,-1.1 -8.7,-0.9 -0.6,0.3 -2.1,2.9 -3.3,5.9 -1.3,3 -3.1,5.9 -4.1,6.4 -2.3,1.3 -6.5,1.3 -9,-0 -3.5,-1.9 -6.3,-11.5 -7.9,-27.4 -0.5,-4.4 -1.7,-11.3 -2.6,-15.1 -2.1,-8.9 -2.4,-28.9 -0.5,-36.5 5.8,-23.5 26.5,-37.9 54.6,-38l8,-0 -0.4,5.1c-0.1,2.8 0.2,5.6 0.8,6.2 1.6,1.6 4.1,-1 4.1,-4.2 0,-4.6 2.9,-11.7 6.7,-16 3.9,-4.7 3.8,-6.6 -0.6,-7.6 -3.5,-0.7 -4.9,-2.2 -6.1,-6.4 -1,-3.6 -0.7,-3.7 2.9,-1.2zM186,128c-0.8,0.6 -2.2,1 -3,0.9 -0.9,-0 -0.5,-0.6 1,-1.4 2.7,-1.4 4.4,-1 2,0.5zM122.1,134.8c-1.7,0.6 -6.1,-0.7 -6.1,-1.7 0,-0.5 1.6,-0.4 3.6,0.2 2,0.6 3.1,1.3 2.5,1.5z" stroke="#00000000"/>
    <path fill="#ffffff"
        d="M114.5,51.1c-1.2,0.6 -2.7,2 -3.4,3.1 -1.1,1.7 -1,2.3 0.3,3.6 1.4,1.4 1.8,1.4 4.1,-0.8 2.3,-2.2 2.9,-2.3 5.8,-1.2 2.6,1 3.4,0.9 4.7,-0.4 1.3,-1.4 1.3,-1.7 -0.9,-3.5 -2.5,-2 -7.3,-2.4 -10.6,-0.8z" stroke="#00000000"/>
    <path fill="#ffffff"
        d="M163.3,51.2c-2.6,1.3 -3.1,4.6 -0.8,5.4 0.8,0.4 2.2,0.1 3,-0.6 1.2,-1 2.1,-1 4.4,-0 5,2 7.2,-1.4 2.9,-4.4 -2.6,-1.8 -6.3,-2 -9.5,-0.4z" stroke="#00000000"/>
    <path fill="#ffffff"
        d="M127.5,76.4c-4,4.2 -5.1,9 -3,12.3 3.9,5.9 13.5,-0.9 13.5,-9.5 0,-3.2 -2.7,-6.2 -5.5,-6.2 -1,-0 -3.2,1.5 -5,3.4z" stroke="#00000000"/>
</svg>

